<?xml version="1.0" encoding="UTF-8" standalone="no"?>
<!DOCTYPE svg PUBLIC "-//W3C//DTD SVG 1.1//EN" "http://www.w3.org/Graphics/SVG/1.1/DTD/svg11.dtd">
<svg width="100%" height="100%" viewBox="0 0 221 217" version="1.1" xmlns="http://www.w3.org/2000/svg" xmlns:xlink="http://www.w3.org/1999/xlink" xml:space="preserve" xmlns:serif="http://www.serif.com/" style="fill-rule:evenodd;clip-rule:evenodd;stroke-linejoin:round;stroke-miterlimit:2;">
    <g transform="matrix(1,0,0,1,-1506.219679,0)">
        <g id="_08" serif:id="08" transform="matrix(0.423342,0,0,0.415915,930.682441,61.828317)">
            <rect x="1359.508" y="-148.656" width="520.068" height="520.068" style="fill:none;"/>
            <g transform="matrix(2.362155,0,0,2.404337,-2205.985389,-79.108683)">
                <g>
                    <g transform="matrix(1.093047,0,0,1,-807.030661,-148.656121)">
                        <path d="M2257.883,186.853C2257.811,186.809 2257.433,186.57 2256.784,186.196C2250.344,182.481 2216.989,165.248 2190.647,194.414C2185.168,200.48 2181.829,207.151 2179.835,213.995C2177.02,223.658 2176.863,233.664 2177.163,242.837C2177.474,252.387 2178.26,261.073 2177.324,267.674C2176.946,270.339 2174.68,286.426 2158.154,294.068C2157.403,294.415 2156.533,294.201 2155.99,293.537C2155.447,292.872 2155.351,291.903 2155.751,291.126C2163.57,275.956 2159.963,257.526 2157.5,237.988C2154.917,217.499 2153.451,195.856 2165.699,175.27C2174.972,159.683 2191.055,142.931 2215.395,138.859C2240.404,134.674 2257.638,139.869 2283.554,157.65C2283.678,157.736 2283.793,157.836 2283.896,157.951C2284.517,158.637 2284.625,159.705 2284.155,160.523C2284.077,160.659 2283.985,160.784 2283.88,160.897L2260.155,186.517C2259.846,186.851 2259.445,187.058 2259.013,187.107C2258.749,187.137 2258.48,187.107 2258.226,187.016C2258.108,186.975 2257.993,186.92 2257.883,186.853Z" style="fill:var(--petitorium-logo-color, #FFFFFF);"/>
                    </g>
                    <g transform="matrix(1.093047,0,0,1,-807.030661,-148.656121)">
                        <ellipse cx="2238.542" cy="286.264" rx="1.927" ry="2.106" style="fill:var(--petitorium-logo-color, #FFFFFF);"/>
                    </g>
                    <g transform="matrix(1.093047,0,0,1,-807.030661,-148.656121)">
                        <path d="M2186.245,245.754C2186.611,248.064 2187.189,250.319 2188.086,252.664L2188.111,252.734L2188.465,253.761C2188.481,253.81 2188.497,253.86 2188.51,253.91C2188.51,253.91 2191.011,263.259 2190.205,273.737C2189.743,279.738 2188.194,286.084 2184.585,291.34C2187.656,291.063 2192.893,289.934 2197.534,287.565C2201.18,285.705 2204.5,283.097 2205.847,279.344C2205.889,279.225 2205.98,279.112 2205.978,278.971L2205.977,278.924L2205.977,265.225C2205.977,259.58 2210.17,254.996 2215.335,254.996C2220.5,254.996 2224.693,259.58 2224.693,265.225L2224.693,265.991L2228.545,265.888C2228.969,265.877 2229.384,266.02 2229.725,266.296L2239.677,274.348C2240.162,274.741 2240.448,275.362 2240.448,276.022L2240.448,280.346C2242.68,281.206 2244.281,283.532 2244.281,286.264C2244.281,289.726 2241.71,292.537 2238.542,292.537C2235.375,292.537 2232.804,289.726 2232.804,286.264C2232.804,283.532 2234.405,281.206 2236.637,280.346L2236.637,277.072L2227.983,270.071L2224.693,270.158L2224.693,280.825C2224.693,280.966 2224.681,281.104 2224.656,281.237L2224.656,288.488C2228.557,292.182 2249.697,311.614 2269.598,318.272C2268.666,304.257 2263.331,273.401 2262.099,266.395C2253.186,264.765 2246.649,261.258 2242.956,255.68C2240.358,251.756 2239.11,246.788 2239.495,240.605L2239.495,240.602C2239.505,240.452 2239.529,240.304 2239.567,240.159C2239.818,239.222 2240.635,238.598 2241.527,238.665C2241.664,238.675 2241.8,238.702 2241.932,238.744L2270.932,248.006C2271.668,248.241 2272.203,248.935 2272.291,249.767L2274.498,270.66L2280.789,274.44L2269.342,210.072L2267.409,199.203C2266.81,200.02 2266.099,200.97 2264.997,202.434L2262.449,205.952C2262.418,205.994 2262.386,206.035 2262.353,206.075C2250.522,220.036 2227.985,238.03 2186.245,245.754ZM2229.966,248.71C2226.835,248.664 2224.306,245.871 2224.306,242.438C2224.306,238.976 2226.878,236.165 2230.045,236.165C2233.212,236.165 2235.784,238.976 2235.784,242.438C2235.784,244.425 2234.937,246.198 2233.616,247.347L2235.627,259.756L2254.46,275.791C2254.84,276.115 2255.094,276.585 2255.17,277.105L2257.522,293.129C2259.899,293.895 2261.636,296.301 2261.636,299.146C2261.636,302.608 2259.065,305.419 2255.897,305.419C2252.73,305.419 2250.158,302.608 2250.158,299.146C2250.158,296.537 2251.619,294.298 2253.694,293.353L2251.525,278.575L2232.707,262.551C2232.335,262.234 2232.083,261.778 2232.001,261.271L2229.966,248.71Z" style="fill:var(--petitorium-logo-color, #FFFFFF);"/>
                    </g>
                    <g transform="matrix(1.093047,0,0,1,-807.030661,-148.656121)">
                        <path d="M2255.858,297.04C2254.812,297.064 2253.97,297.998 2253.97,299.146C2253.97,300.309 2254.834,301.253 2255.897,301.253C2256.961,301.253 2257.824,300.309 2257.824,299.146C2257.824,297.984 2256.961,297.04 2255.897,297.04L2255.858,297.04Z" style="fill:var(--petitorium-logo-color, #FFFFFF);"/>
                    </g>
                    <g transform="matrix(1.093047,0,0,1,-807.030661,-148.656121)">
                        <ellipse cx="2230.045" cy="242.438" rx="1.927" ry="2.106" style="fill:var(--petitorium-logo-color, #FFFFFF);"/>
                    </g>
                    <g transform="matrix(1.093047,0,0,1,-807.030661,-148.656121)">
                        <path d="M2258.361,204.623C2250.688,195.675 2239.78,190.081 2227.686,190.081C2204.483,190.081 2185.644,210.672 2185.644,236.035C2185.644,238.004 2185.68,239.845 2185.795,241.611C2224.84,234.346 2246.591,217.933 2258.361,204.623Z" style="fill:var(--petitorium-logo-color, #FFFFFF);"/>
                    </g>
                </g>
            </g>
        </g>
    </g>
</svg>
